<svg width="97" height="280" viewBox="0 0 97 280" fill="none" xmlns="http://www.w3.org/2000/svg">
<g clip-path="url(#clip0_4_15)">
<path d="M21.3225 168.3C22.4225 166.7 22.9225 165.7 23.7225 164.9C24.5225 164 25.6225 164.3 25.9225 165.4C26.1225 166 26.1225 166.9 25.9225 167.5C25.3225 169.1 24.6225 170.6 23.8225 172.1C23.2225 173.1 22.8225 174.1 23.2225 175.4C25.7225 184.6 29.0225 193.5 33.3225 202C33.4225 202.2 33.6225 202.4 34.0225 202.9C34.0225 201.9 34.0225 201.2 34.0225 200.4C34.0225 197.7 34.0225 195.1 35.2225 192.6C36.1225 190.8 37.3225 189.9 38.6225 190.2C40.0225 190.5 41.4225 191.8 41.5225 193.6C41.6225 195.3 41.5225 197 41.2225 198.6C40.4225 202.3 39.5225 206 38.6225 209.8C38.5225 210.4 38.2225 211.1 38.5225 211.6C40.5225 215.2 42.6225 218.8 45.1225 222.1C45.3225 220.1 45.3225 218.1 45.8225 216.2C46.7225 213.3 47.9225 210.4 49.3225 207.6C49.8225 206.7 50.9225 206 51.9225 205.5C52.4225 205.2 53.7225 205.5 54.0225 206C54.3225 206.5 54.2225 207.6 53.9225 208.2C53.2225 209.3 52.2225 210.3 51.2225 211.1C48.0225 213.6 47.4225 217.1 47.7225 221C48.0225 220.3 48.4225 219.7 48.7225 219C48.9225 218.5 49.1225 218 49.4225 217.6C50.2225 216.5 51.2225 216.1 51.8225 216.7C52.6225 217.6 52.0225 218.3 51.4225 219C48.3225 222.8 48.1225 227.7 50.9225 231.7C52.2225 233.6 53.5225 235.5 54.9225 237.4C55.2225 237.9 55.7225 238.3 56.3225 239.1C56.1225 237.4 55.8225 236.2 55.9225 235C56.0225 233.6 56.2225 232.2 56.6225 230.8C57.1225 229.2 58.4225 228.4 59.5225 228.6C60.7225 228.8 61.5225 229.9 61.5225 231.7C61.5225 232.8 61.4225 233.8 61.2225 234.9C60.8225 237.4 60.4225 240 59.9225 242.5C59.7225 243.8 59.9225 244.9 60.8225 245.9C62.9225 248.3 64.8225 250.8 66.9225 253.3C67.0225 251.3 67.1225 249.5 67.3225 247.8C67.4225 247.1 67.7225 246.4 68.1225 245.9C68.5225 245.4 69.4225 244.9 69.9225 245.1C70.5225 245.3 71.3225 245.9 71.5225 246.6C71.8225 247.4 71.7225 248.3 71.7225 249.2C71.7225 251.8 71.6225 254.4 71.5225 256.9C71.5225 258 71.8225 258.9 72.6225 259.7C77.3225 264.4 82.6225 268.2 88.6225 271.5C88.0225 269.4 87.3225 267.5 87.1225 265.5C86.9225 263.6 87.1225 261.6 87.3225 259.7C87.4225 259 87.7225 258.3 88.2225 257.8C88.6225 257.4 89.3225 257.1 89.8225 257.3C90.3225 257.4 90.8225 258.1 90.8225 258.6C90.9225 259.6 90.6225 260.5 90.5225 261.5C90.3225 263.4 90.2225 265.3 90.0225 267.7C91.6225 266.9 91.7225 265.6 92.3225 264.8C92.8225 264.1 93.2225 263.3 93.8225 262.6C94.5225 261.9 95.4225 261.6 96.2225 262.3C97.1225 263.1 96.6225 263.9 95.9225 264.6C94.1225 266.3 93.3225 268.5 92.6225 270.8C92.1225 272.6 92.6225 273.9 93.7225 275.2C94.5225 276.1 95.4225 276.8 96.1225 277.7C96.4225 278.1 96.4225 278.7 96.7225 279.6C94.9225 279.1 93.6225 278.5 92.6225 277.5C91.9225 276.8 91.2225 276.1 90.5225 275.4C87.2225 272.4 83.7225 270.1 78.8225 270.9C76.9225 271.2 74.9225 270.7 73.0225 270.5C72.2225 270.4 71.5225 270.1 70.8225 269.7C69.9225 269.2 69.2225 268.5 69.4225 267.4C69.6225 266.3 70.6225 265.9 71.6225 265.8C72.6225 265.8 73.5225 265.9 74.5225 266C75.4225 266.1 76.2225 266.4 77.5225 266.8C74.4225 263.9 72.0225 260.8 68.9225 258.9C66.4225 257.3 63.0225 257.4 59.9225 258.5C58.7225 259 57.4225 259.4 56.1225 259.8C55.3225 260 54.5225 260 53.7225 259.8C52.4225 259.6 51.6225 258.7 51.8225 257.7C52.0225 256.5 52.9225 256.2 53.9225 256.2C55.7225 256.2 57.5225 256.3 59.2225 256.3C59.8225 256.3 60.4225 256.3 61.1225 255.9C60.6225 255.6 60.2225 255.3 59.7225 255.1C55.7225 253.3 51.6225 251.5 47.6225 249.6C46.3225 249 45.0225 248.1 43.8225 247.2C43.0225 246.5 42.2225 245.4 43.0225 244.4C43.8225 243.3 44.9225 243.9 45.9225 244.5C46.9225 245.1 47.8225 245.8 48.8225 246.4C53.4225 249.6 58.2225 252.5 63.3225 254.7C64.1225 255 64.9225 255.3 65.9225 255.3C64.6225 253.7 63.3225 252 61.9225 250.4C54.6225 241.5 48.3225 231.9 42.1225 222.3C41.1225 220.7 39.8225 220.1 38.0225 219.8C35.8225 219.5 33.7225 218.8 31.6225 218.2C31.0225 218 30.5225 217.6 30.0225 217.2C29.1225 216.4 28.9225 215.4 29.4225 214.3C29.8225 213.3 30.7225 212.7 31.8225 212.9C33.6225 213.3 35.3225 213.9 37.2225 214.5C37.0225 214 36.8225 213.4 36.5225 212.9C32.6225 206.1 28.9225 199.2 26.0225 191.9C25.8225 191.4 25.4225 190.8 24.9225 190.5C22.4225 188.7 19.8225 187 17.4225 185C16.1225 183.9 14.8225 183.4 13.1225 183.5C10.9225 183.6 8.62252 183.7 6.42252 183.5C4.82252 183.3 3.12251 182.9 1.62251 182.2C0.322515 181.6 -0.277485 180.3 0.122515 179.4C0.722515 178.1 1.82252 177.9 3.02252 178.2C4.32252 178.6 5.62252 179.2 6.92252 179.8C8.72252 180.6 10.4225 181.5 12.7225 181.3C11.0225 179 9.42252 176.9 8.02252 174.7C7.32252 173.6 7.12252 172.3 6.92252 171C6.82252 170.6 7.42252 169.8 7.92252 169.7C8.32252 169.6 9.02252 170 9.42252 170.4C9.82252 170.8 10.0225 171.5 10.0225 172.1C10.3225 175.3 12.0225 177.6 14.2225 179.6C17.4225 182.6 20.7225 185.3 24.0225 188.2C24.2225 188.1 24.3225 188 24.5225 187.9C24.0225 186.3 23.3225 184.7 23.0225 183C22.2225 178.9 20.1225 175.8 17.0225 173.1C14.8225 171.1 13.0225 168.6 11.3225 166.1C10.4225 164.8 9.92252 163.1 9.42252 161.5C9.12252 160.4 9.22252 159.3 10.3225 158.7C11.5225 158 12.4225 158.8 13.0225 159.7C14.3225 161.6 15.5225 163.6 16.6225 165.6C17.4225 167 18.1225 168.4 19.2225 169.6C18.5225 165.8 17.7225 162 17.2225 158.2C16.5225 152.7 15.9225 147.3 15.5225 141.8C15.4225 139.6 14.7225 137.9 13.0225 136.5C9.72252 133.8 7.02252 130.5 5.32252 126.4C4.92252 125.4 4.52252 124.2 4.52252 123.1C4.52252 121.3 5.92252 120.5 7.42252 121.4C8.72252 122.2 9.82252 123.4 10.8225 124.6C11.6225 125.6 12.3225 126.8 12.9225 128C13.5225 129.1 14.1225 130.3 14.8225 131.4C15.2225 125.1 15.5225 118.9 13.2225 112.8C12.9225 112.1 12.7225 111.5 12.5225 110.8C11.6225 107.6 10.4225 104.6 7.62252 102.5C6.72252 101.8 6.22252 100.7 5.62252 99.7C4.22252 97.7 2.82252 95.6 1.52252 93.5C1.02252 92.7 0.52252 91.8 0.32252 90.9C0.22252 90.4 0.722515 89.5 1.12251 89.2C1.42251 89 2.42252 89.3 2.72252 89.6C3.42252 90.5 3.92252 91.5 4.42252 92.6C5.52252 94.8 6.42252 97.2 7.52252 99.4C8.02252 100.5 8.92252 101.3 9.82252 102.4C9.82252 99 9.82252 95.9 9.82252 92.9C9.82252 92.4 9.32252 91.8 9.02252 91.3C7.32252 88.7 5.62252 86.1 4.02252 83.5C3.42252 82.5 3.12252 81.4 3.02252 80.3C2.92252 78.7 3.82252 77.5 5.22252 77C6.62252 76.5 8.02252 76.8 8.92252 78.2C9.62252 79.2 10.2225 80.4 10.4225 81.5C11.4225 85.5 11.9225 89.4 11.8225 93.6C11.6225 100.3 12.4225 106.9 15.7225 113.2C15.9225 112.6 16.1225 112.2 16.2225 111.8C17.5225 98.5 19.6225 85.4 23.1225 72.5C23.3225 71.9 23.2225 71.1 22.9225 70.5C20.0225 62.3 18.2225 53.9 18.5225 45.2C18.5225 44.5 18.4225 43.7 18.7225 43.1C19.0225 42.5 19.7225 41.8 20.4225 41.7C20.7225 41.6 21.6225 42.4 21.8225 43C22.2225 44.6 22.5225 46.3 22.7225 48C23.4225 53.4 24.0225 58.8 24.6225 64.1C24.7225 64.5 24.8225 64.9 25.1225 65.8C28.7225 56.1 32.3225 46.7 35.8225 37.1C33.7225 34.8 32.4225 31.9 32.0225 28.6C31.8225 26.9 32.1225 25.1 32.4225 23.4C32.6225 22.3 33.3225 21.4 34.6225 21.4C35.5225 21.3 36.4225 22.4 36.5225 24C36.7225 26.8 36.9225 29.7 37.1225 32.5C37.1225 32.8 37.2225 33.2 37.3225 34.1C38.7225 31.8 39.8225 30 41.0225 28.2C42.6225 25.8 43.8225 23.5 44.3225 20.5C45.3225 15 47.2225 9.6 51.1225 5.4C52.8225 3.5 55.0225 2 57.0225 0.5C57.5225 0.1 58.3225 0 59.0225 0C60.3225 0 60.9225 0.599995 60.7225 1.8C60.4225 3.4 60.1225 5 59.4225 6.4C57.6225 10.4 55.0225 13.9 51.9225 17C44.7225 24.3 39.7225 33.1 35.9225 42.5C35.2225 44.2 34.6225 46 34.0225 47.7C34.0225 47.8 34.1225 48 34.1225 48.3C36.6225 46.6 39.1225 44.9 41.6225 43.3C43.0225 42.4 44.5225 41.6 46.0225 40.9C48.6225 39.7 50.9225 38.2 53.1225 36.2C55.7225 33.9 58.7225 32.1 62.4225 31.9C62.9225 31.9 63.5225 31.9 64.0225 31.9C65.9225 32.1 66.6225 33.7 65.4225 35.1C64.7225 36 63.6225 36.9 62.5225 37.4C59.4225 39 56.1225 40.1 52.6225 40.4C49.5225 40.7 47.2225 42.4 44.3225 43.9C47.8225 44.9 50.8225 45.7 53.7225 46.6C54.5225 46.8 55.3225 47 55.9225 47.4C56.3225 47.7 56.8225 48.6 56.6225 48.9C56.2225 49.4 55.5225 49.9 55.0225 49.8C54.3225 49.8 53.5225 49.3 52.8225 48.9C49.7225 46.7 46.1225 46.3 42.6225 45.4C42.1225 45.3 41.4225 45.6 40.9225 45.9C39.5225 46.8 38.1225 47.7 36.7225 48.7C33.7225 51 31.4225 53.7 30.1225 57.4C27.6225 65 24.6225 72.4 23.1225 80.3C23.0225 80.7 23.0225 81.1 22.8225 82.1C24.1225 80.6 25.1225 79.4 26.1225 78.4C27.8225 76.7 29.6225 75.2 31.5225 73.6C32.0225 73.1 32.7225 72.7 33.4225 72.6C34.2225 72.5 35.2225 72.6 35.8225 73C36.7225 73.6 36.8225 74.8 36.1225 75.6C35.1225 76.9 34.0225 78.3 32.8225 79.3C30.6225 81.2 28.2225 82.9 25.9225 84.7C24.6225 85.8 23.4225 86.9 22.2225 88.1C21.7225 88.6 21.3225 89.2 21.2225 89.9C20.2225 95.5 19.4225 101 18.5225 106.6C18.7225 106.7 18.9225 106.7 19.0225 106.8C19.5225 106.1 19.9225 105.3 20.4225 104.6C21.7225 102.7 23.0225 100.8 24.3225 98.9C24.9225 98.1 25.7225 97.5 26.5225 97.1C27.7225 96.5 28.8225 97.2 28.7225 98.5C28.6225 99.5 28.3225 100.6 27.8225 101.5C25.7225 105.9 23.0225 109.8 19.6225 113.2C18.2225 114.6 17.6225 116.1 17.5225 118.1C16.8225 128.1 17.0225 138.2 18.0225 148.2C18.2225 148.1 18.4225 148.1 18.4225 148.1C20.1225 142.9 22.4225 137.9 23.3225 132.4C23.6225 130.2 24.4225 128.1 25.9225 126.3C27.0225 125 28.0225 124.7 28.8225 125.3C29.8225 126.1 29.7225 127.2 29.2225 128.2C28.1225 130.1 27.0225 132 25.9225 134C25.1225 135.5 24.4225 137 23.3225 139C25.6225 138.2 27.3225 137.5 29.0225 137C30.1225 136.6 31.2225 136.3 32.3225 136.2C32.8225 136.1 33.3225 136.6 33.8225 136.9C33.5225 137.5 33.2225 138.2 32.8225 138.5C32.4225 138.8 31.6225 138.8 31.0225 138.9C29.6225 139.2 28.2225 139.4 26.8225 139.8C23.9225 140.6 22.0225 142.3 21.2225 145.3C20.8225 146.9 20.3225 148.6 19.6225 150.1C18.6225 152.4 18.4225 154.7 18.9225 157.1C20.0225 160.8 20.6225 164.3 21.3225 168.3Z" fill="black"/>
</g>
<defs>
<clipPath id="clip0_4_15">
<rect width="97" height="280" fill="white"/>
</clipPath>
</defs>
</svg>
